<mxfile host="app.diagrams.net" modified="2022-12-06T15:32:18.012Z" agent="5.0 (Windows NT 10.0; Win64; x64) AppleWebKit/537.36 (KHTML, like Gecko) Chrome/108.0.0.0 Safari/537.36" etag="KFj0UXh8Hy8Jb9CqV9cT" version="20.6.0" type="github">
  <diagram id="iaAQiAWIPeeJdh17TBl3" name="第 1 页">
    <mxGraphModel dx="2036" dy="642" grid="1" gridSize="10" guides="1" tooltips="1" connect="1" arrows="1" fold="1" page="1" pageScale="1" pageWidth="827" pageHeight="1169" math="0" shadow="0">
      <root>
        <mxCell id="0" />
        <mxCell id="1" parent="0" />
        <mxCell id="MEXTcm3aqpzI307UwJNp-1" value="AWS Cloud" style="points=[[0,0],[0.25,0],[0.5,0],[0.75,0],[1,0],[1,0.25],[1,0.5],[1,0.75],[1,1],[0.75,1],[0.5,1],[0.25,1],[0,1],[0,0.75],[0,0.5],[0,0.25]];outlineConnect=0;gradientColor=none;html=1;whiteSpace=wrap;fontSize=12;fontStyle=0;container=1;pointerEvents=0;collapsible=0;recursiveResize=0;shape=mxgraph.aws4.group;grIcon=mxgraph.aws4.group_aws_cloud_alt;strokeColor=#232F3E;fillColor=none;verticalAlign=top;align=left;spacingLeft=30;fontColor=#232F3E;dashed=0;" parent="1" vertex="1">
          <mxGeometry x="-193" y="163" width="945" height="527" as="geometry" />
        </mxCell>
        <mxCell id="MEXTcm3aqpzI307UwJNp-13" value="" style="edgeStyle=orthogonalEdgeStyle;rounded=1;orthogonalLoop=1;jettySize=auto;html=1;strokeColor=#000000;strokeWidth=1;endArrow=open;endFill=0;targetPerimeterSpacing=0;" parent="MEXTcm3aqpzI307UwJNp-1" source="MEXTcm3aqpzI307UwJNp-2" target="MEXTcm3aqpzI307UwJNp-3" edge="1">
          <mxGeometry relative="1" as="geometry" />
        </mxCell>
        <mxCell id="MEXTcm3aqpzI307UwJNp-2" value="Route53" style="sketch=0;outlineConnect=0;fontColor=#232F3E;gradientColor=none;fillColor=#4D27AA;strokeColor=none;dashed=0;verticalLabelPosition=bottom;verticalAlign=top;align=center;html=1;fontSize=12;fontStyle=0;aspect=fixed;pointerEvents=1;shape=mxgraph.aws4.route_53_resolver;" parent="MEXTcm3aqpzI307UwJNp-1" vertex="1">
          <mxGeometry x="27" y="269" width="40" height="40" as="geometry" />
        </mxCell>
        <mxCell id="MEXTcm3aqpzI307UwJNp-34" value="" style="edgeStyle=orthogonalEdgeStyle;rounded=1;orthogonalLoop=1;jettySize=auto;html=1;strokeColor=#000000;strokeWidth=1;endArrow=open;endFill=0;targetPerimeterSpacing=0;movable=0;resizable=0;rotatable=0;deletable=0;editable=0;connectable=0;" parent="MEXTcm3aqpzI307UwJNp-1" source="MEXTcm3aqpzI307UwJNp-3" target="MEXTcm3aqpzI307UwJNp-4" edge="1">
          <mxGeometry relative="1" as="geometry" />
        </mxCell>
        <mxCell id="MEXTcm3aqpzI307UwJNp-3" value="Cloud Front&lt;br&gt;CDN" style="sketch=0;points=[[0,0,0],[0.25,0,0],[0.5,0,0],[0.75,0,0],[1,0,0],[0,1,0],[0.25,1,0],[0.5,1,0],[0.75,1,0],[1,1,0],[0,0.25,0],[0,0.5,0],[0,0.75,0],[1,0.25,0],[1,0.5,0],[1,0.75,0]];outlineConnect=0;fontColor=#232F3E;gradientColor=#945DF2;gradientDirection=north;fillColor=#5A30B5;strokeColor=#ffffff;dashed=0;verticalLabelPosition=bottom;verticalAlign=top;align=center;html=1;fontSize=12;fontStyle=0;aspect=fixed;shape=mxgraph.aws4.resourceIcon;resIcon=mxgraph.aws4.cloudfront;" parent="MEXTcm3aqpzI307UwJNp-1" vertex="1">
          <mxGeometry x="108" y="269" width="40" height="40" as="geometry" />
        </mxCell>
        <mxCell id="MEXTcm3aqpzI307UwJNp-14" value="" style="edgeStyle=orthogonalEdgeStyle;rounded=1;orthogonalLoop=1;jettySize=auto;html=1;strokeColor=#000000;strokeWidth=1;endArrow=open;endFill=0;targetPerimeterSpacing=0;" parent="MEXTcm3aqpzI307UwJNp-1" source="MEXTcm3aqpzI307UwJNp-3" target="MEXTcm3aqpzI307UwJNp-4" edge="1">
          <mxGeometry relative="1" as="geometry" />
        </mxCell>
        <mxCell id="MEXTcm3aqpzI307UwJNp-7" value="Region" style="points=[[0,0],[0.25,0],[0.5,0],[0.75,0],[1,0],[1,0.25],[1,0.5],[1,0.75],[1,1],[0.75,1],[0.5,1],[0.25,1],[0,1],[0,0.75],[0,0.5],[0,0.25]];outlineConnect=0;gradientColor=none;html=1;whiteSpace=wrap;fontSize=12;fontStyle=0;container=1;pointerEvents=0;collapsible=0;recursiveResize=0;shape=mxgraph.aws4.group;grIcon=mxgraph.aws4.group_region;strokeColor=#147EBA;fillColor=none;verticalAlign=top;align=left;spacingLeft=30;fontColor=#147EBA;dashed=1;" parent="MEXTcm3aqpzI307UwJNp-1" vertex="1">
          <mxGeometry x="160" y="20" width="773" height="500" as="geometry" />
        </mxCell>
        <mxCell id="MEXTcm3aqpzI307UwJNp-24" value="VPC" style="points=[[0,0],[0.25,0],[0.5,0],[0.75,0],[1,0],[1,0.25],[1,0.5],[1,0.75],[1,1],[0.75,1],[0.5,1],[0.25,1],[0,1],[0,0.75],[0,0.5],[0,0.25]];outlineConnect=0;gradientColor=none;html=1;whiteSpace=wrap;fontSize=12;fontStyle=0;container=1;pointerEvents=0;collapsible=0;recursiveResize=0;shape=mxgraph.aws4.group;grIcon=mxgraph.aws4.group_vpc;strokeColor=#248814;fillColor=none;verticalAlign=top;align=left;spacingLeft=30;fontColor=#AAB7B8;dashed=0;" parent="MEXTcm3aqpzI307UwJNp-7" vertex="1">
          <mxGeometry x="30" y="22" width="670" height="460" as="geometry" />
        </mxCell>
        <mxCell id="MEXTcm3aqpzI307UwJNp-33" value="Public subnet" style="points=[[0,0],[0.25,0],[0.5,0],[0.75,0],[1,0],[1,0.25],[1,0.5],[1,0.75],[1,1],[0.75,1],[0.5,1],[0.25,1],[0,1],[0,0.75],[0,0.5],[0,0.25]];outlineConnect=0;gradientColor=none;html=1;whiteSpace=wrap;fontSize=12;fontStyle=0;container=1;pointerEvents=0;collapsible=0;recursiveResize=0;shape=mxgraph.aws4.group;grIcon=mxgraph.aws4.group_security_group;grStroke=0;strokeColor=#248814;fillColor=#E9F3E6;verticalAlign=top;align=left;spacingLeft=30;fontColor=#248814;dashed=0;" parent="MEXTcm3aqpzI307UwJNp-24" vertex="1">
          <mxGeometry x="10" y="30" width="280" height="420" as="geometry" />
        </mxCell>
        <mxCell id="KX6XBS3XM0f0dJusFJSZ-7" value="" style="edgeStyle=orthogonalEdgeStyle;rounded=1;orthogonalLoop=1;jettySize=auto;html=1;strokeColor=#000000;strokeWidth=1;fontSize=11;fontColor=#009900;endArrow=none;endFill=0;targetPerimeterSpacing=0;entryX=0;entryY=0.5;entryDx=0;entryDy=0;" edge="1" parent="MEXTcm3aqpzI307UwJNp-33" source="MEXTcm3aqpzI307UwJNp-4" target="MEXTcm3aqpzI307UwJNp-23">
          <mxGeometry relative="1" as="geometry">
            <Array as="points">
              <mxPoint x="73" y="220" />
              <mxPoint x="73" y="220" />
            </Array>
          </mxGeometry>
        </mxCell>
        <mxCell id="MEXTcm3aqpzI307UwJNp-4" value="Public LB" style="sketch=0;points=[[0,0,0],[0.25,0,0],[0.5,0,0],[0.75,0,0],[1,0,0],[0,1,0],[0.25,1,0],[0.5,1,0],[0.75,1,0],[1,1,0],[0,0.25,0],[0,0.5,0],[0,0.75,0],[1,0.25,0],[1,0.5,0],[1,0.75,0]];outlineConnect=0;fontColor=#232F3E;gradientColor=#945DF2;gradientDirection=north;fillColor=#5A30B5;strokeColor=#ffffff;dashed=0;verticalLabelPosition=bottom;verticalAlign=top;align=center;html=1;fontSize=12;fontStyle=0;aspect=fixed;shape=mxgraph.aws4.resourceIcon;resIcon=mxgraph.aws4.elastic_load_balancing;" parent="MEXTcm3aqpzI307UwJNp-33" vertex="1">
          <mxGeometry x="25" y="197" width="40" height="40" as="geometry" />
        </mxCell>
        <mxCell id="MEXTcm3aqpzI307UwJNp-23" value="Auto Scaling group" style="points=[[0,0],[0.25,0],[0.5,0],[0.75,0],[1,0],[1,0.25],[1,0.5],[1,0.75],[1,1],[0.75,1],[0.5,1],[0.25,1],[0,1],[0,0.75],[0,0.5],[0,0.25]];outlineConnect=0;gradientColor=none;html=1;whiteSpace=wrap;fontSize=12;fontStyle=0;container=1;pointerEvents=0;collapsible=0;recursiveResize=0;shape=mxgraph.aws4.groupCenter;grIcon=mxgraph.aws4.group_auto_scaling_group;grStroke=1;strokeColor=#D86613;fillColor=none;verticalAlign=top;align=center;fontColor=#D86613;dashed=1;spacingTop=25;" parent="MEXTcm3aqpzI307UwJNp-33" vertex="1">
          <mxGeometry x="105" y="30" width="125" height="380" as="geometry" />
        </mxCell>
        <mxCell id="MEXTcm3aqpzI307UwJNp-22" value="Fronted Web" style="sketch=0;points=[[0,0,0],[0.25,0,0],[0.5,0,0],[0.75,0,0],[1,0,0],[0,1,0],[0.25,1,0],[0.5,1,0],[0.75,1,0],[1,1,0],[0,0.25,0],[0,0.5,0],[0,0.75,0],[1,0.25,0],[1,0.5,0],[1,0.75,0]];outlineConnect=0;fontColor=#232F3E;gradientColor=#F78E04;gradientDirection=north;fillColor=#D05C17;strokeColor=#ffffff;dashed=0;verticalLabelPosition=bottom;verticalAlign=top;align=center;html=1;fontSize=12;fontStyle=0;aspect=fixed;shape=mxgraph.aws4.resourceIcon;resIcon=mxgraph.aws4.ec2;" parent="MEXTcm3aqpzI307UwJNp-23" vertex="1">
          <mxGeometry x="48" y="63" width="40" height="40" as="geometry" />
        </mxCell>
        <mxCell id="MEXTcm3aqpzI307UwJNp-25" value="" style="sketch=0;points=[[0,0,0],[0.25,0,0],[0.5,0,0],[0.75,0,0],[1,0,0],[0,1,0],[0.25,1,0],[0.5,1,0],[0.75,1,0],[1,1,0],[0,0.25,0],[0,0.5,0],[0,0.75,0],[1,0.25,0],[1,0.5,0],[1,0.75,0]];outlineConnect=0;fontColor=#232F3E;gradientColor=#F78E04;gradientDirection=north;fillColor=#D05C17;strokeColor=#ffffff;dashed=0;verticalLabelPosition=bottom;verticalAlign=top;align=center;html=1;fontSize=12;fontStyle=0;aspect=fixed;shape=mxgraph.aws4.resourceIcon;resIcon=mxgraph.aws4.ec2;" parent="MEXTcm3aqpzI307UwJNp-23" vertex="1">
          <mxGeometry x="48" y="153" width="40" height="40" as="geometry" />
        </mxCell>
        <mxCell id="KX6XBS3XM0f0dJusFJSZ-8" value="CloudWatch" style="sketch=0;points=[[0,0,0],[0.25,0,0],[0.5,0,0],[0.75,0,0],[1,0,0],[0,1,0],[0.25,1,0],[0.5,1,0],[0.75,1,0],[1,1,0],[0,0.25,0],[0,0.5,0],[0,0.75,0],[1,0.25,0],[1,0.5,0],[1,0.75,0]];points=[[0,0,0],[0.25,0,0],[0.5,0,0],[0.75,0,0],[1,0,0],[0,1,0],[0.25,1,0],[0.5,1,0],[0.75,1,0],[1,1,0],[0,0.25,0],[0,0.5,0],[0,0.75,0],[1,0.25,0],[1,0.5,0],[1,0.75,0]];outlineConnect=0;fontColor=#232F3E;gradientColor=#F34482;gradientDirection=north;fillColor=#BC1356;strokeColor=#ffffff;dashed=0;verticalLabelPosition=bottom;verticalAlign=top;align=center;html=1;fontSize=12;fontStyle=0;aspect=fixed;shape=mxgraph.aws4.resourceIcon;resIcon=mxgraph.aws4.cloudwatch_2;" vertex="1" parent="MEXTcm3aqpzI307UwJNp-23">
          <mxGeometry x="48" y="225" width="40" height="40" as="geometry" />
        </mxCell>
        <mxCell id="KX6XBS3XM0f0dJusFJSZ-9" value="Amazon VPC&lt;br&gt;Flow logs" style="sketch=0;outlineConnect=0;fontColor=#232F3E;gradientColor=none;fillColor=#4D27AA;strokeColor=none;dashed=0;verticalLabelPosition=bottom;verticalAlign=top;align=center;html=1;fontSize=12;fontStyle=0;aspect=fixed;pointerEvents=1;shape=mxgraph.aws4.flow_logs;" vertex="1" parent="MEXTcm3aqpzI307UwJNp-23">
          <mxGeometry x="48" y="300" width="40" height="40" as="geometry" />
        </mxCell>
        <mxCell id="MEXTcm3aqpzI307UwJNp-39" value="Private subnet" style="points=[[0,0],[0.25,0],[0.5,0],[0.75,0],[1,0],[1,0.25],[1,0.5],[1,0.75],[1,1],[0.75,1],[0.5,1],[0.25,1],[0,1],[0,0.75],[0,0.5],[0,0.25]];outlineConnect=0;gradientColor=none;html=1;whiteSpace=wrap;fontSize=12;fontStyle=0;container=1;pointerEvents=0;collapsible=0;recursiveResize=0;shape=mxgraph.aws4.group;grIcon=mxgraph.aws4.group_security_group;grStroke=0;strokeColor=#147EBA;fillColor=#E6F2F8;verticalAlign=top;align=left;spacingLeft=30;fontColor=#147EBA;dashed=0;" parent="MEXTcm3aqpzI307UwJNp-24" vertex="1">
          <mxGeometry x="310" y="30" width="350" height="420" as="geometry" />
        </mxCell>
        <mxCell id="MEXTcm3aqpzI307UwJNp-45" value="Auto Scaling group" style="points=[[0,0],[0.25,0],[0.5,0],[0.75,0],[1,0],[1,0.25],[1,0.5],[1,0.75],[1,1],[0.75,1],[0.5,1],[0.25,1],[0,1],[0,0.75],[0,0.5],[0,0.25]];outlineConnect=0;gradientColor=none;html=1;whiteSpace=wrap;fontSize=12;fontStyle=0;container=1;pointerEvents=0;collapsible=0;recursiveResize=0;shape=mxgraph.aws4.groupCenter;grIcon=mxgraph.aws4.group_auto_scaling_group;grStroke=1;strokeColor=#D86613;fillColor=none;verticalAlign=top;align=center;fontColor=#D86613;dashed=1;spacingTop=25;" parent="MEXTcm3aqpzI307UwJNp-39" vertex="1">
          <mxGeometry x="84" y="30" width="126" height="380" as="geometry" />
        </mxCell>
        <mxCell id="KX6XBS3XM0f0dJusFJSZ-5" value="CloudWatch" style="sketch=0;points=[[0,0,0],[0.25,0,0],[0.5,0,0],[0.75,0,0],[1,0,0],[0,1,0],[0.25,1,0],[0.5,1,0],[0.75,1,0],[1,1,0],[0,0.25,0],[0,0.5,0],[0,0.75,0],[1,0.25,0],[1,0.5,0],[1,0.75,0]];points=[[0,0,0],[0.25,0,0],[0.5,0,0],[0.75,0,0],[1,0,0],[0,1,0],[0.25,1,0],[0.5,1,0],[0.75,1,0],[1,1,0],[0,0.25,0],[0,0.5,0],[0,0.75,0],[1,0.25,0],[1,0.5,0],[1,0.75,0]];outlineConnect=0;fontColor=#232F3E;gradientColor=#F34482;gradientDirection=north;fillColor=#BC1356;strokeColor=#ffffff;dashed=0;verticalLabelPosition=bottom;verticalAlign=top;align=center;html=1;fontSize=12;fontStyle=0;aspect=fixed;shape=mxgraph.aws4.resourceIcon;resIcon=mxgraph.aws4.cloudwatch_2;" vertex="1" parent="MEXTcm3aqpzI307UwJNp-45">
          <mxGeometry x="38" y="225" width="40" height="40" as="geometry" />
        </mxCell>
        <mxCell id="KX6XBS3XM0f0dJusFJSZ-10" value="Amazon VPC&lt;br&gt;Flow logs" style="sketch=0;outlineConnect=0;fontColor=#232F3E;gradientColor=none;fillColor=#4D27AA;strokeColor=none;dashed=0;verticalLabelPosition=bottom;verticalAlign=top;align=center;html=1;fontSize=12;fontStyle=0;aspect=fixed;pointerEvents=1;shape=mxgraph.aws4.flow_logs;" vertex="1" parent="MEXTcm3aqpzI307UwJNp-45">
          <mxGeometry x="38" y="300" width="40" height="40" as="geometry" />
        </mxCell>
        <mxCell id="MEXTcm3aqpzI307UwJNp-47" value="Public LB" style="sketch=0;points=[[0,0,0],[0.25,0,0],[0.5,0,0],[0.75,0,0],[1,0,0],[0,1,0],[0.25,1,0],[0.5,1,0],[0.75,1,0],[1,1,0],[0,0.25,0],[0,0.5,0],[0,0.75,0],[1,0.25,0],[1,0.5,0],[1,0.75,0]];outlineConnect=0;fontColor=#232F3E;gradientColor=#945DF2;gradientDirection=north;fillColor=#5A30B5;strokeColor=#ffffff;dashed=0;verticalLabelPosition=bottom;verticalAlign=top;align=center;html=1;fontSize=12;fontStyle=0;aspect=fixed;shape=mxgraph.aws4.resourceIcon;resIcon=mxgraph.aws4.elastic_load_balancing;" parent="MEXTcm3aqpzI307UwJNp-39" vertex="1">
          <mxGeometry x="15" y="195" width="40" height="40" as="geometry" />
        </mxCell>
        <mxCell id="MEXTcm3aqpzI307UwJNp-52" value="" style="edgeStyle=orthogonalEdgeStyle;rounded=1;orthogonalLoop=1;jettySize=auto;html=1;strokeColor=#000000;strokeWidth=1;endArrow=none;endFill=0;targetPerimeterSpacing=0;" parent="MEXTcm3aqpzI307UwJNp-39" source="MEXTcm3aqpzI307UwJNp-47" edge="1">
          <mxGeometry relative="1" as="geometry">
            <mxPoint x="83" y="215" as="targetPoint" />
          </mxGeometry>
        </mxCell>
        <mxCell id="MEXTcm3aqpzI307UwJNp-57" value="" style="edgeStyle=orthogonalEdgeStyle;rounded=1;orthogonalLoop=1;jettySize=auto;html=1;strokeColor=#000000;strokeWidth=1;fontSize=11;endArrow=none;endFill=0;targetPerimeterSpacing=0;" parent="MEXTcm3aqpzI307UwJNp-39" source="MEXTcm3aqpzI307UwJNp-53" target="MEXTcm3aqpzI307UwJNp-56" edge="1">
          <mxGeometry relative="1" as="geometry" />
        </mxCell>
        <mxCell id="MEXTcm3aqpzI307UwJNp-53" value="&lt;font style=&quot;font-size: 11px;&quot;&gt;RDS Active/replica&lt;/font&gt;" style="sketch=0;outlineConnect=0;fontColor=#232F3E;gradientColor=none;fillColor=#2E27AD;strokeColor=none;dashed=0;verticalLabelPosition=bottom;verticalAlign=top;align=center;html=1;fontSize=11;fontStyle=0;aspect=fixed;pointerEvents=1;shape=mxgraph.aws4.rds_instance;horizontal=1;" parent="MEXTcm3aqpzI307UwJNp-39" vertex="1">
          <mxGeometry x="267" y="95" width="40" height="40" as="geometry" />
        </mxCell>
        <mxCell id="MEXTcm3aqpzI307UwJNp-56" value="" style="sketch=0;outlineConnect=0;fontColor=#232F3E;gradientColor=none;fillColor=#2E27AD;strokeColor=none;dashed=0;verticalLabelPosition=bottom;verticalAlign=top;align=center;html=1;fontSize=12;fontStyle=0;aspect=fixed;pointerEvents=1;shape=mxgraph.aws4.elasticache_for_redis;" parent="MEXTcm3aqpzI307UwJNp-39" vertex="1">
          <mxGeometry x="265" y="200" width="45.22" height="40" as="geometry" />
        </mxCell>
        <mxCell id="MEXTcm3aqpzI307UwJNp-58" value="" style="edgeStyle=orthogonalEdgeStyle;rounded=1;orthogonalLoop=1;jettySize=auto;html=1;strokeColor=#000000;strokeWidth=1;fontSize=11;endArrow=none;endFill=0;targetPerimeterSpacing=0;entryX=1;entryY=0.5;entryDx=0;entryDy=0;" parent="MEXTcm3aqpzI307UwJNp-39" source="MEXTcm3aqpzI307UwJNp-56" target="MEXTcm3aqpzI307UwJNp-45" edge="1">
          <mxGeometry relative="1" as="geometry" />
        </mxCell>
        <mxCell id="KX6XBS3XM0f0dJusFJSZ-1" value="Availability Zone" style="text;html=1;align=center;verticalAlign=middle;resizable=0;points=[];autosize=1;strokeColor=none;fillColor=none;fontSize=11;fontColor=#009900;" vertex="1" parent="MEXTcm3aqpzI307UwJNp-39">
          <mxGeometry x="178.22" y="285" width="110" height="30" as="geometry" />
        </mxCell>
        <mxCell id="MEXTcm3aqpzI307UwJNp-50" value="" style="edgeStyle=orthogonalEdgeStyle;rounded=1;orthogonalLoop=1;jettySize=auto;html=1;strokeColor=#000000;strokeWidth=1;endArrow=none;endFill=0;targetPerimeterSpacing=0;" parent="MEXTcm3aqpzI307UwJNp-24" source="MEXTcm3aqpzI307UwJNp-23" target="MEXTcm3aqpzI307UwJNp-47" edge="1">
          <mxGeometry relative="1" as="geometry">
            <mxPoint x="265" y="245" as="sourcePoint" />
            <Array as="points">
              <mxPoint x="263" y="245" />
              <mxPoint x="263" y="245" />
            </Array>
          </mxGeometry>
        </mxCell>
        <mxCell id="MEXTcm3aqpzI307UwJNp-61" value="" style="edgeStyle=orthogonalEdgeStyle;rounded=1;orthogonalLoop=1;jettySize=auto;html=1;strokeColor=#000000;strokeWidth=1;fontSize=11;endArrow=none;endFill=0;targetPerimeterSpacing=0;" parent="MEXTcm3aqpzI307UwJNp-7" edge="1">
          <mxGeometry relative="1" as="geometry">
            <mxPoint x="715" y="314" as="sourcePoint" />
            <mxPoint x="573" y="314" as="targetPoint" />
            <Array as="points">
              <mxPoint x="542" y="314" />
            </Array>
          </mxGeometry>
        </mxCell>
        <mxCell id="MEXTcm3aqpzI307UwJNp-59" value="S3 Services" style="sketch=0;points=[[0,0,0],[0.25,0,0],[0.5,0,0],[0.75,0,0],[1,0,0],[0,1,0],[0.25,1,0],[0.5,1,0],[0.75,1,0],[1,1,0],[0,0.25,0],[0,0.5,0],[0,0.75,0],[1,0.25,0],[1,0.5,0],[1,0.75,0]];outlineConnect=0;fontColor=#232F3E;gradientColor=#60A337;gradientDirection=north;fillColor=#277116;strokeColor=#ffffff;dashed=0;verticalLabelPosition=bottom;verticalAlign=top;align=center;html=1;fontSize=12;fontStyle=0;aspect=fixed;shape=mxgraph.aws4.resourceIcon;resIcon=mxgraph.aws4.s3;" parent="MEXTcm3aqpzI307UwJNp-7" vertex="1">
          <mxGeometry x="715" y="293" width="40" height="40" as="geometry" />
        </mxCell>
        <mxCell id="MEXTcm3aqpzI307UwJNp-21" value="Permission" style="sketch=0;outlineConnect=0;fontColor=#232F3E;gradientColor=none;fillColor=#BF0816;strokeColor=none;dashed=0;verticalLabelPosition=bottom;verticalAlign=top;align=center;html=1;fontSize=12;fontStyle=0;aspect=fixed;pointerEvents=1;shape=mxgraph.aws4.permissions;" parent="MEXTcm3aqpzI307UwJNp-1" vertex="1">
          <mxGeometry x="31.1" y="209" width="31.8" height="40" as="geometry" />
        </mxCell>
        <mxCell id="KX6XBS3XM0f0dJusFJSZ-3" value="IAM Access&lt;br&gt;Analyzer" style="sketch=0;outlineConnect=0;fontColor=#232F3E;gradientColor=none;fillColor=#BF0816;strokeColor=none;dashed=0;verticalLabelPosition=bottom;verticalAlign=top;align=center;html=1;fontSize=12;fontStyle=0;aspect=fixed;pointerEvents=1;shape=mxgraph.aws4.access_analyzer;" vertex="1" parent="MEXTcm3aqpzI307UwJNp-1">
          <mxGeometry x="26.999999999999996" y="129" width="40.52" height="40" as="geometry" />
        </mxCell>
        <mxCell id="MEXTcm3aqpzI307UwJNp-19" value="" style="edgeStyle=orthogonalEdgeStyle;rounded=1;orthogonalLoop=1;jettySize=auto;html=1;strokeColor=#000000;strokeWidth=1;endArrow=open;endFill=0;targetPerimeterSpacing=0;" parent="1" source="MEXTcm3aqpzI307UwJNp-6" target="MEXTcm3aqpzI307UwJNp-2" edge="1">
          <mxGeometry relative="1" as="geometry" />
        </mxCell>
        <mxCell id="MEXTcm3aqpzI307UwJNp-6" value="Mobile Users" style="sketch=0;pointerEvents=1;shadow=0;dashed=0;html=1;strokeColor=none;fillColor=#505050;labelPosition=center;verticalLabelPosition=bottom;verticalAlign=top;outlineConnect=0;align=center;shape=mxgraph.office.users.mobile_user;" parent="1" vertex="1">
          <mxGeometry x="-273" y="432" width="40" height="40" as="geometry" />
        </mxCell>
        <mxCell id="MEXTcm3aqpzI307UwJNp-9" value="Encrypted Data" style="sketch=0;outlineConnect=0;fontColor=#232F3E;gradientColor=none;fillColor=#BF0816;strokeColor=none;dashed=0;verticalLabelPosition=bottom;verticalAlign=top;align=center;html=1;fontSize=12;fontStyle=0;aspect=fixed;pointerEvents=1;shape=mxgraph.aws4.encrypted_data;" parent="1" vertex="1">
          <mxGeometry x="-268.89" y="497" width="31.79" height="40" as="geometry" />
        </mxCell>
        <mxCell id="MEXTcm3aqpzI307UwJNp-43" value="Backend Web" style="sketch=0;points=[[0,0,0],[0.25,0,0],[0.5,0,0],[0.75,0,0],[1,0,0],[0,1,0],[0.25,1,0],[0.5,1,0],[0.75,1,0],[1,1,0],[0,0.25,0],[0,0.5,0],[0,0.75,0],[1,0.25,0],[1,0.5,0],[1,0.75,0]];outlineConnect=0;fontColor=#232F3E;gradientColor=#F78E04;gradientDirection=north;fillColor=#D05C17;strokeColor=#ffffff;dashed=0;verticalLabelPosition=bottom;verticalAlign=top;align=center;html=1;fontSize=12;fontStyle=0;aspect=fixed;shape=mxgraph.aws4.resourceIcon;resIcon=mxgraph.aws4.ec2;" parent="1" vertex="1">
          <mxGeometry x="429" y="327" width="40" height="40" as="geometry" />
        </mxCell>
        <mxCell id="MEXTcm3aqpzI307UwJNp-44" value="" style="sketch=0;points=[[0,0,0],[0.25,0,0],[0.5,0,0],[0.75,0,0],[1,0,0],[0,1,0],[0.25,1,0],[0.5,1,0],[0.75,1,0],[1,1,0],[0,0.25,0],[0,0.5,0],[0,0.75,0],[1,0.25,0],[1,0.5,0],[1,0.75,0]];outlineConnect=0;fontColor=#232F3E;gradientColor=#F78E04;gradientDirection=north;fillColor=#D05C17;strokeColor=#ffffff;dashed=0;verticalLabelPosition=bottom;verticalAlign=top;align=center;html=1;fontSize=12;fontStyle=0;aspect=fixed;shape=mxgraph.aws4.resourceIcon;resIcon=mxgraph.aws4.ec2;" parent="1" vertex="1">
          <mxGeometry x="429" y="417" width="40" height="40" as="geometry" />
        </mxCell>
      </root>
    </mxGraphModel>
  </diagram>
</mxfile>
